HIERARCHY
ROOT Root
{
  OFFSET 0.0 0.0 0.0
  CHANNELS 6 Xposition Yposition Zposition Zrotation Yrotation Xrotation
  JOINT Hips
  {
    OFFSET 0.0 100.0 0.0
    CHANNELS 6 Xposition Yposition Zposition Zrotation Yrotation Xrotation
    JOINT Spine1
    {
      OFFSET -0.013727 5.003763 -0.053727
      CHANNELS 3 Zrotation Yrotation Xrotation
      JOINT Spine2
      {
        OFFSET -0.0 7.125301 -0.029825
        CHANNELS 3 Zrotation Yrotation Xrotation
        JOINT Chest
        {
          OFFSET -1e-06 7.550063 -0.815971
          CHANNELS 3 Zrotation Yrotation Xrotation
          JOINT Neck1
          {
            OFFSET -0.181677 26.311295 -0.553348
            CHANNELS 3 Zrotation Yrotation Xrotation
            JOINT Neck2
            {
              OFFSET -3e-06 7.709397 2.302585
              CHANNELS 3 Zrotation Yrotation Xrotation
              JOINT Head
              {
                OFFSET -5e-06 6.128916 1.953709
                CHANNELS 3 Zrotation Yrotation Xrotation
                JOINT HeadEnd
                {
                  OFFSET 0.003598 16.065403 -1.835379
                  CHANNELS 3 Zrotation Yrotation Xrotation
                }
                JOINT Jaw
                {
                  OFFSET 0.002637 0.475592 3.094941
                  CHANNELS 3 Zrotation Yrotation Xrotation
                }
                JOINT LeftEye
                {
                  OFFSET 3.206381 5.380205 7.586883
                  CHANNELS 3 Zrotation Yrotation Xrotation
                }
                JOINT RightEye
                {
                  OFFSET -3.22244 5.361869 7.558234
                  CHANNELS 3 Zrotation Yrotation Xrotation
                }
              }
            }
          }
          JOINT LeftShoulder
          {
            OFFSET 1.621652 23.237164 5.113413
            CHANNELS 3 Zrotation Yrotation Xrotation
            JOINT LeftArm
            {
              OFFSET 14.919846 2e-06 -5.502326
              CHANNELS 3 Zrotation Yrotation Xrotation
              JOINT LeftForeArm
              {
                OFFSET 28.739307 0.0 -0.002588
                CHANNELS 3 Zrotation Yrotation Xrotation
                JOINT LeftHand
                {
                  OFFSET 27.093981 -1e-06 0.002609
                  CHANNELS 3 Zrotation Yrotation Xrotation
                  JOINT LeftHandThumb1
                  {
                    OFFSET 2.276482 -1.392045 3.191413
                    CHANNELS 3 Zrotation Yrotation Xrotation
                    JOINT LeftHandThumb2
                    {
                      OFFSET 4.012836 -1.828127 1.641654
                      CHANNELS 3 Zrotation Yrotation Xrotation
                      JOINT LeftHandThumb3
                      {
                        OFFSET 2.798515 0.0 -3e-06
                        CHANNELS 3 Zrotation Yrotation Xrotation
                        JOINT LeftHandThumbEnd
                        {
                          OFFSET 3.180793 -4e-06 4e-06
                          CHANNELS 3 Zrotation Yrotation Xrotation
                        }
                      }
                    }
                  }
                  JOINT LeftHandIndex1
                  {
                    OFFSET 3.247555 -0.531998 2.296169
                    CHANNELS 3 Zrotation Yrotation Xrotation
                    JOINT LeftHandIndex2
                    {
                      OFFSET 6.364578 0.01206 0.1786
                      CHANNELS 3 Zrotation Yrotation Xrotation
                      JOINT LeftHandIndex3
                      {
                        OFFSET 3.662364 0.0 0.0
                        CHANNELS 3 Zrotation Yrotation Xrotation
                        JOINT LeftHandIndex4
                        {
                          OFFSET 2.329242 4e-06 4e-06
                          CHANNELS 3 Zrotation Yrotation Xrotation
                          JOINT LeftHandIndexEnd
                          {
                            OFFSET 2.759615 -0.180537 -0.113024
                            CHANNELS 3 Zrotation Yrotation Xrotation
                          }
                        }
                      }
                    }
                  }
                  JOINT LeftHandMiddle1
                  {
                    OFFSET 3.163495 0.240981 1.000332
                    CHANNELS 3 Zrotation Yrotation Xrotation
                    JOINT LeftHandMiddle2
                    {
                      OFFSET 6.19078 -0.259278 -1.002548
                      CHANNELS 3 Zrotation Yrotation Xrotation
                      JOINT LeftHandMiddle3
                      {
                        OFFSET 4.35652 -4e-06 -1e-06
                        CHANNELS 3 Zrotation Yrotation Xrotation
                        JOINT LeftHandMiddle4
                        {
                          OFFSET 2.996877 -8e-06 0.0
                          CHANNELS 3 Zrotation Yrotation Xrotation
                          JOINT LeftHandMiddleEnd
                          {
                            OFFSET 2.304287 -0.294569 -0.031741
                            CHANNELS 3 Zrotation Yrotation Xrotation
                          }
                        }
                      }
                    }
                  }
                  JOINT LeftHandRing1
                  {
                    OFFSET 2.882643 -0.053652 -0.322543
                    CHANNELS 3 Zrotation Yrotation Xrotation
                    JOINT LeftHandRing2
                    {
                      OFFSET 5.854541 -0.486202 -1.373841
                      CHANNELS 3 Zrotation Yrotation Xrotation
                      JOINT LeftHandRing3
                      {
                        OFFSET 4.350578 0.0 3e-06
                        CHANNELS 3 Zrotation Yrotation Xrotation
                        JOINT LeftHandRing4
                        {
                          OFFSET 2.651321 7e-06 2e-06
                          CHANNELS 3 Zrotation Yrotation Xrotation
                          JOINT LeftHandRingEnd
                          {
                            OFFSET 1.936105 0.077687 -7.1e-05
                            CHANNELS 3 Zrotation Yrotation Xrotation
                          }
                        }
                      }
                    }
                  }
                  JOINT LeftHandPinky1
                  {
                    OFFSET 2.8655 -0.310005 -1.600378
                    CHANNELS 3 Zrotation Yrotation Xrotation
                    JOINT LeftHandPinky2
                    {
                      OFFSET 5.087849 -1.331141 -1.77123
                      CHANNELS 3 Zrotation Yrotation Xrotation
                      JOINT LeftHandPinky3
                      {
                        OFFSET 3.070974 4e-06 0.0
                        CHANNELS 3 Zrotation Yrotation Xrotation
                        JOINT LeftHandPinky4
                        {
                          OFFSET 1.549672 0.0 1e-06
                          CHANNELS 3 Zrotation Yrotation Xrotation
                          JOINT LeftHandPinkyEnd
                          {
                            OFFSET 1.944893 -0.157802 0.057219
                            CHANNELS 3 Zrotation Yrotation Xrotation
                          }
                        }
                      }
                    }
                  }
                }
              }
            }
          }
          JOINT RightShoulder
          {
            OFFSET -1.380118 23.180309 5.214158
            CHANNELS 3 Zrotation Yrotation Xrotation
            JOINT RightArm
            {
              OFFSET -15.037196 1.2e-05 -5.545604
              CHANNELS 3 Zrotation Yrotation Xrotation
              JOINT RightForeArm
              {
                OFFSET -28.736639 2e-06 -0.002597
                CHANNELS 3 Zrotation Yrotation Xrotation
                JOINT RightHand
                {
                  OFFSET -27.133619 -0.0 0.002613
                  CHANNELS 3 Zrotation Yrotation Xrotation
                  JOINT RightHandThumb1
                  {
                    OFFSET -2.274032 -1.383988 3.163127
                    CHANNELS 3 Zrotation Yrotation Xrotation
                    JOINT RightHandThumb2
                    {
                      OFFSET -4.011429 -1.827466 1.640914
                      CHANNELS 3 Zrotation Yrotation Xrotation
                      JOINT RightHandThumb3
                      {
                        OFFSET -2.794935 -4e-06 -3e-06
                        CHANNELS 3 Zrotation Yrotation Xrotation
                        JOINT RightHandThumbEnd
                        {
                          OFFSET -3.183852 4e-06 1e-06
                          CHANNELS 3 Zrotation Yrotation Xrotation
                        }
                      }
                    }
                  }
                  JOINT RightHandIndex1
                  {
                    OFFSET -3.253266 -0.520057 2.282866
                    CHANNELS 3 Zrotation Yrotation Xrotation
                    JOINT RightHandIndex2
                    {
                      OFFSET -6.341917 0.012471 0.178266
                      CHANNELS 3 Zrotation Yrotation Xrotation
                      JOINT RightHandIndex3
                      {
                        OFFSET -3.654871 -8e-06 -0.0
                        CHANNELS 3 Zrotation Yrotation Xrotation
                        JOINT RightHandIndex4
                        {
                          OFFSET -2.327586 0.0 1e-06
                          CHANNELS 3 Zrotation Yrotation Xrotation
                          JOINT RightHandIndexEnd
                          {
                            OFFSET -2.76179 -0.180656 -0.113078
                            CHANNELS 3 Zrotation Yrotation Xrotation
                          }
                        }
                      }
                    }
                  }
                  JOINT RightHandMiddle1
                  {
                    OFFSET -3.168106 0.246593 1.00103
                    CHANNELS 3 Zrotation Yrotation Xrotation
                    JOINT RightHandMiddle2
                    {
                      OFFSET -6.180828 -0.258836 -1.000895
                      CHANNELS 3 Zrotation Yrotation Xrotation
                      JOINT RightHandMiddle3
                      {
                        OFFSET -4.348901 0.0 -0.0
                        CHANNELS 3 Zrotation Yrotation Xrotation
                        JOINT RightHandMiddle4
                        {
                          OFFSET -3.00024 -4e-06 -2e-06
                          CHANNELS 3 Zrotation Yrotation Xrotation
                          JOINT RightHandMiddleEnd
                          {
                            OFFSET -2.30252 -0.29437 -0.031706
                            CHANNELS 3 Zrotation Yrotation Xrotation
                          }
                        }
                      }
                    }
                  }
                  JOINT RightHandRing1
                  {
                    OFFSET -2.88569 -0.067952 -0.308858
                    CHANNELS 3 Zrotation Yrotation Xrotation
                    JOINT RightHandRing2
                    {
                      OFFSET -5.854198 -0.48613 -1.373731
                      CHANNELS 3 Zrotation Yrotation Xrotation
                      JOINT RightHandRing3
                      {
                        OFFSET -4.33881 -4e-06 -0.0
                        CHANNELS 3 Zrotation Yrotation Xrotation
                        JOINT RightHandRing4
                        {
                          OFFSET -2.654903 -4e-06 4e-06
                          CHANNELS 3 Zrotation Yrotation Xrotation
                          JOINT RightHandRingEnd
                          {
                            OFFSET -1.933568 0.077527 -5.2e-05
                            CHANNELS 3 Zrotation Yrotation Xrotation
                          }
                        }
                      }
                    }
                  }
                  JOINT RightHandPinky1
                  {
                    OFFSET -2.866425 -0.342796 -1.584145
                    CHANNELS 3 Zrotation Yrotation Xrotation
                    JOINT RightHandPinky2
                    {
                      OFFSET -5.091371 -1.332055 -1.772385
                      CHANNELS 3 Zrotation Yrotation Xrotation
                      JOINT RightHandPinky3
                      {
                        OFFSET -3.062664 -4e-06 1e-06
                        CHANNELS 3 Zrotation Yrotation Xrotation
                        JOINT RightHandPinky4
                        {
                          OFFSET -1.546529 4e-06 -2e-06
                          CHANNELS 3 Zrotation Yrotation Xrotation
                          JOINT RightHandPinkyEnd
                          {
                            OFFSET -1.945119 -0.157718 0.057211
                            CHANNELS 3 Zrotation Yrotation Xrotation
                          }
                        }
                      }
                    }
                  }
                }
              }
            }
          }
        }
      }
    }
    JOINT LeftLeg
    {
      OFFSET 10.043214 -8.434526 2.595655
      CHANNELS 3 Zrotation Yrotation Xrotation
      JOINT LeftShin
      {
        OFFSET -1e-06 -43.221752 -0.802913
        CHANNELS 3 Zrotation Yrotation Xrotation
        JOINT LeftFoot
        {
          OFFSET 1e-06 -42.155094 -3.481523
          CHANNELS 3 Zrotation Yrotation Xrotation
          JOINT LeftToeBase
          {
            OFFSET 0.0 -5.059472 13.231529
            CHANNELS 3 Zrotation Yrotation Xrotation
            JOINT LeftToeEnd
            {
              OFFSET -0.009607 -1.647619 6.513017
              CHANNELS 3 Zrotation Yrotation Xrotation
            }
          }
        }
      }
    }
    JOINT RightLeg
    {
      OFFSET -10.047278 -8.29526 2.620317
      CHANNELS 3 Zrotation Yrotation Xrotation
      JOINT RightShin
      {
        OFFSET 1e-06 -43.362206 -0.805556
        CHANNELS 3 Zrotation Yrotation Xrotation
        JOINT RightFoot
        {
          OFFSET 2e-06 -42.117393 -3.478398
          CHANNELS 3 Zrotation Yrotation Xrotation
          JOINT RightToeBase
          {
            OFFSET -0.0 -5.079609 13.284196
            CHANNELS 3 Zrotation Yrotation Xrotation
            JOINT RightToeEnd
            {
              OFFSET 0.009532 -1.634378 6.460591
              CHANNELS 3 Zrotation Yrotation Xrotation
            }
          }
        }
      }
    }
  }
}
MOTION
Frames: 4
Frame Time: 0.03333333333333333
0.653655 0.0 6.081811 0.0 -0.0 0.0 0.0 99.566826 0.0 0.043608 -0.038466 -4.491468 0.302036 -0.187003 -1.011723 -0.427221 -0.166265 -4.776326 -1.011455 -2.267647 11.558908 -1.774481 3.668842 6.636301 -0.495656 0.223093 -3.687763 2.353295 -1.21995 -0.882193 0.000163 -4.8e-05 0.001907 -0.014197 0.090341 -0.029996 0.780168 -3.630661 -10.627702 -0.812538 3.819124 -10.633173 -23.148825 -5.669815 10.453966 -54.908524 2.909238 15.258389 0.368136 -26.24297 -0.235627 3.934661 2.426377 -13.737092 -5.8816 9.836401 0.769528 -10.942657 -0.342572 7.183721 -0.003129 8.787128 -0.002289 -15.669795 18.325052 6.513646 -1.844871 2.493154 -2.501739 -10.16862 4.68491 4.625954 -20.979311 0.005272 -0.005155 -21.260483 2.447975 -3.597394 0.00129 0.001406 -0.001361 -1.36759 2.242558 -0.735155 -21.329033 0.580645 3.000422 -13.831097 0.006035 0.001236 -23.898922 -0.229751 -0.861833 -60.550591 2.628824 -1.033079 -0.296353 1.689608 0.845284 -14.217396 0.075629 1.291668 -34.248562 -0.27702 0.965411 -20.031853 0.967362 1.214628 0.008887 0.002638 0.006156 -3.452406 0.802269 0.509728 -15.925759 -3.192263 3.000768 -6.345351 0.002217 -0.000484 -18.108023 3.658043 -4.906377 -0.008609 0.004114 0.008311 27.072083 9.967178 13.111011 53.761314 -5.422678 13.507247 -0.198838 26.906967 0.091474 -2.032381 -15.496782 -26.692139 2.224151 -5.189152 -3.163455 14.279471 -0.867796 6.959003 0.002517 -12.722681 -0.005807 16.574247 -17.778214 2.517856 1.660941 -1.955141 -2.878066 4.727715 -4.179581 4.996775 11.015965 -0.00337 -0.001779 12.10796 -3.753609 -2.874426 -0.005809 -0.003437 -0.000868 1.289843 -1.947955 -1.492334 14.795855 0.586911 3.867637 14.23785 -1.348797 -6.663379 19.662596 0.141262 -0.654368 50.40501 -0.52439 -6.106446 0.348789 -1.549759 -0.026458 20.226242 3.727884 2.324952 18.798546 -6.1e-05 -0.002864 10.75698 -0.477938 1.398067 0.01099 0.000246 0.001082 3.268663 0.272092 -0.5843 21.492409 11.886591 2.285446 8.167532 0.001385 0.000967 18.398273 -3.800408 -4.94221 -0.0001 -0.003617 -0.001666 1.855106 5.616543 5.498315 -0.005954 -0.09102 7.66858 -2.901836 0.278261 -8.804197 1.662469 -1.962008 -0.191607 0.000152 -0.000833 0.004861 -1.839221 -2.558648 3.914221 -0.027324 -0.03694 9.476878 3.696179 -5.823004 -9.095723 -1.433075 0.9534 -0.326804 -0.000112 -0.002732 0.000757 
0.669744 0.0 6.143157 0.0 -0.0 0.0 0.0 99.602669 0.0 0.037024 -0.024006 -4.530386 0.300133 -0.171769 -1.038437 -0.406251 -0.168376 -4.791153 -1.017961 -2.287877 11.562604 -1.770857 3.635108 6.665591 -0.524066 0.240218 -3.68328 2.307136 -1.215464 -0.776675 0.000297 -0.000103 0.000965 -0.010854 0.112644 -0.031085 0.773777 -3.603435 -10.633746 -0.799737 3.838168 -10.637958 -23.180586 -5.65638 10.43414 -54.833454 2.935107 15.337637 0.25676 -26.436712 -0.219551 3.950628 2.411638 -13.278568 -5.877015 9.842758 0.769011 -10.9308 -0.360711 7.176311 -0.002019 8.774462 -0.002267 -15.665085 18.26531 6.52468 -1.83828 2.491941 -2.504828 -10.165324 4.683176 4.624853 -20.983227 -0.002271 0.00419 -21.221771 2.451451 -3.608147 0.009989 0.000518 0.003013 -1.356925 2.236372 -0.74033 -21.325573 0.584585 3.011186 -13.816122 0.001588 -0.0006 -23.853476 -0.250368 -0.843265 -60.55703 2.660989 -0.970439 -0.2871 1.67651 0.844697 -14.212005 0.092425 1.289839 -34.203178 -0.280421 0.978759 -20.017216 0.956215 1.202924 -0.005563 0.002732 0.000541 -3.441443 0.786833 0.501734 -15.928005 -3.16515 3.004165 -6.33862 0.008114 0.003491 -18.128235 3.647478 -4.905239 0.000837 -0.008248 -0.000733 27.077595 9.917138 13.16875 53.741291 -5.489768 13.349146 -0.250941 26.948608 0.066646 -2.173295 -15.429678 -26.842251 2.231227 -5.268797 -3.177969 14.288958 -0.828618 6.949587 -0.001453 -12.690637 0.0004 16.630316 -17.756397 2.500103 1.658428 -1.956138 -2.877547 4.721306 -4.17029 4.998885 10.999632 -0.001164 -0.00075 12.08505 -3.738796 -2.867382 -0.007142 -0.00294 0.001849 1.291474 -1.929894 -1.49224 14.798532 0.570843 3.865256 14.246471 -1.343846 -6.66469 19.596222 0.140946 -0.648685 50.322189 -0.472872 -6.119904 0.346771 -1.51463 -0.024356 20.215179 3.692736 2.318969 18.77599 -0.002885 -0.000965 10.740129 -0.479196 1.398188 -2.4e-05 -0.000962 -0.00016 3.271883 0.305094 -0.573759 21.48315 11.840355 2.267633 8.167235 0.002371 0.000787 18.372961 -3.809094 -4.940202 -0.000469 0.004115 -0.000852 1.84889 5.567094 5.960287 -0.014433 -0.120781 6.875082 -2.786652 0.408341 -8.506702 1.657447 -1.958747 -0.264134 7.5e-05 0.000681 0.00486 -1.811276 -2.493161 4.332164 -0.037809 -0.057412 8.772491 3.689186 -5.920689 -8.868641 -1.429782 0.949981 -0.398811 0.001185 -0.000804 -0.006107 
0.665458 0.0 6.138147 0.0 -0.0 0.0 0.0 99.61454 0.0 0.002573 -0.028039 -4.604814 0.30552 -0.155177 -1.045526 -0.408163 -0.180794 -4.826445 -1.007682 -2.30319 11.57752 -1.764064 3.609393 6.707716 -0.535304 0.277118 -3.695558 2.283003 -1.161687 -0.693176 -0.000148 3.3e-05 0.000872 -0.009255 0.108852 -0.021552 0.761895 -3.607488 -10.633089 -0.784973 3.832927 -10.643118 -23.268967 -5.558767 10.372109 -54.689846 2.997063 15.381789 0.180142 -26.585543 -0.214599 3.916683 2.422195 -12.960583 -5.867865 9.885789 0.612974 -10.966585 -0.37047 7.125471 -0.002999 8.774773 -0.001407 -15.668739 18.260731 6.506747 -1.844213 2.490545 -2.504719 -10.149273 4.679593 4.623702 -20.927755 0.008462 0.000161 -21.168425 2.454218 -3.589932 -0.008944 -0.000211 -0.000774 -1.362817 2.227013 -0.739485 -21.311155 0.591539 3.011983 -13.782907 0.003923 0.004588 -23.813602 -0.262158 -0.834769 -60.440189 2.651068 -0.890806 -0.292897 1.667155 0.845227 -14.2012 0.097871 1.299574 -34.156036 -0.285519 0.974262 -19.989956 0.966128 1.201589 -0.007632 -0.004644 -0.005456 -3.429649 0.774625 0.514423 -15.929302 -3.155429 3.003959 -6.313958 -0.000208 -0.007571 -18.110794 3.646495 -4.896219 0.009847 0.003475 0.005015 27.114157 9.898182 13.110063 53.716473 -5.525764 13.337758 -0.284937 27.039303 0.063589 -2.280704 -15.336455 -27.025076 2.258059 -5.240963 -3.121822 14.304499 -0.82561 6.974775 -0.000516 -12.677062 0.003162 16.635685 -17.747284 2.465517 1.656161 -1.95658 -2.881349 4.733368 -4.170369 4.990802 11.017319 0.000332 0.002747 12.106174 -3.729515 -2.868709 -0.005396 0.000524 0.003963 1.283699 -1.92792 -1.499396 14.811543 0.565823 3.866246 14.247009 -1.344781 -6.663114 19.695223 0.13598 -0.651844 50.478092 -0.453549 -6.18588 0.35278 -1.512362 -0.035332 20.222086 3.683405 2.320714 18.791948 -0.004488 0.005471 10.749744 -0.482973 1.402709 -0.006183 -0.00046 8.2e-05 3.264047 0.314288 -0.580348 21.479074 11.802716 2.259907 8.158781 0.004315 0.003044 18.342016 -3.80551 -4.919359 0.010108 -0.000744 -0.002603 1.856666 5.497587 6.122869 -0.017854 -0.129502 6.635264 -2.739382 0.50799 -8.237804 1.652341 -1.95436 -0.23836 0.000336 0.000916 0.009324 -1.775707 -2.441349 4.544862 -0.046353 -0.082152 8.472266 3.61275 -5.941761 -8.59723 -1.418717 0.939973 -0.414946 -0.000115 -0.002749 0.005427 
0.642105 0.0 6.161432 0.0 -0.0 0.0 0.0 99.598404 0.0 -0.006088 -0.036755 -4.65662 0.318695 -0.143538 -1.047309 -0.418553 -0.192853 -4.840937 -0.997449 -2.337027 11.572906 -1.738222 3.626113 6.7865 -0.559293 0.283903 -3.707798 2.26316 -1.10741 -0.611489 8.5e-05 -4.9e-05 -0.001744 -0.007957 0.098782 -0.022362 0.753805 -3.619363 -10.646444 -0.773044 3.825245 -10.653527 -23.231964 -5.542542 10.337689 -54.736233 3.026423 15.514903 0.136987 -26.714659 -0.150427 3.912677 2.50226 -12.796307 -5.878633 9.915899 0.638202 -10.949018 -0.380379 7.125465 -0.001586 8.7639 -0.005177 -15.684402 18.230434 6.475061 -1.844233 2.49903 -2.511929 -10.161573 4.671412 4.62322 -20.965019 0.000851 0.007448 -21.217772 2.445339 -3.577365 -0.009391 -0.002505 -0.006164 -1.357492 2.221464 -0.735514 -21.324085 0.593507 2.996502 -13.817697 0.001879 0.008273 -23.834066 -0.243625 -0.839305 -60.540325 2.634564 -0.871024 -0.288428 1.665751 0.835844 -14.216411 0.103383 1.305826 -34.193378 -0.290234 0.968039 -20.031319 0.96741 1.218595 0.000862 -0.002066 0.001582 -3.428417 0.757238 0.509583 -15.932347 -3.129408 2.994931 -6.331832 -0.004185 -0.008362 -18.079803 3.63683 -4.884434 0.006753 0.001368 0.000336 27.15127 9.902388 13.101624 53.577946 -5.567895 13.415404 -0.344163 27.103128 0.017218 -2.348054 -15.210272 -27.033346 2.247476 -5.278269 -3.214967 14.305016 -0.798259 6.916508 -0.00424 -12.672887 -0.001994 16.627911 -17.772198 2.44149 1.661088 -1.954595 -2.873893 4.712361 -4.160109 5.003157 10.989904 0.00159 0.002253 12.050897 -3.726949 -2.850186 -0.000281 -0.000187 -0.000272 1.287101 -1.917452 -1.486932 14.786784 0.567714 3.866837 14.228585 -1.338477 -6.65 19.615362 0.146342 -0.636287 50.280479 -0.450344 -6.159582 0.342608 -1.496265 -0.024115 20.215006 3.676229 2.321117 18.779636 0.004996 0.007029 10.753041 -0.477597 1.400358 -0.002361 -0.000625 -0.000724 3.244308 0.324187 -0.562251 21.48539 11.808696 2.262685 8.153716 -0.001422 0.001418 18.352888 -3.79596 -4.913463 -0.019594 -0.002458 0.000909 1.879328 5.430602 6.110507 -0.015283 -0.131795 6.829474 -2.767204 0.600171 -8.497701 1.652336 -1.97426 -0.199256 0.000326 -0.000811 0.010844 -1.756719 -2.38842 4.5679 -0.049295 -0.104755 8.586845 3.615687 -5.956035 -8.675027 -1.416426 0.933547 -0.40352 0.000801 0.004617 0.001862 
